# xmcd
#
# Track frame offsets: 
#        150
#        19474
#        47152
#        71413
#        94642
#        111794
#        135754
#        149555
#        178948
#        207343
#        223539
#        242361
#        263103
#        280420
#
# Disc length: 4005 seconds
#
# Revision: 9
# Processed by: cddbd v1.5.2PL0 Copyright (c) Steve Scherf et al.
# Submitted via: ExactAudioCopy v1.3
#
DISCID=d10fa30e
DTITLE=Beyoncé - Beyoncé
DYEAR=2013
DGENRE=R&B
TTITLE0=Pretty Hurts
TTITLE1=Haunted
TTITLE2=Drunk In Love (feat. Jay-Z)
TTITLE3=Blow
TTITLE4=No Angel
TTITLE5=Partition
TTITLE6=Jealous
TTITLE7=Rocket
TTITLE8=Mine (feat. Drake)
TTITLE9=XO
TTITLE10=Flawless (feat. Chimamanda Ngozi Adichie)
TTITLE11=Superpower (feat. Frank Ocean)
TTITLE12=Heaven
TTITLE13=Blue (feat. Blue Ivy)
EXTD=
EXTT0=
EXTT1=
EXTT2=
EXTT3=
EXTT4=
EXTT5=
EXTT6=
EXTT7=
EXTT8=
EXTT9=
EXTT10=
EXTT11=
EXTT12=
EXTT13=
PLAYORDER=
